<svg version="1.2" xmlns="http://www.w3.org/2000/svg" viewBox="0 0 281 254" width="281" height="254"><style>.a{fill:#3d85fd}.b{fill:#233863}.c{fill:#fff}</style><path class="a" d="m247.9 215.2l-214.2 0.5c-16.4 0-29.9-13.4-29.9-29.8l-0.3-139.5c0-16.4 13.4-29.9 29.8-29.9l214.2-0.5c16.4 0 29.9 13.4 29.9 29.8l0.3 139.5c0.1 16.4-13.3 29.9-29.8 29.9z"/><path fill-rule="evenodd" class="b" d="m33.7 218.7c-18.1 0-32.9-14.7-32.9-32.8l-0.3-139.5c0-18.1 14.7-32.9 32.8-32.9l214.2-0.5q0 0 0.1 0c18.1 0 32.8 14.7 32.8 32.8l0.3 139.5c0.1 8.7-3.4 17-9.6 23.2-6.2 6.3-14.4 9.7-23.2 9.7l-214.2 0.5q0 0 0 0zm213.9-199.7q-0.1 0-0.1 0l-214.2 0.5c-14.8 0-26.8 12.1-26.8 26.9l0.3 139.5c0 14.8 12.1 26.8 26.9 26.8q0 0 0 0l214.2-0.5c7.2 0 13.9-2.8 19-7.9 5.1-5.1 7.9-11.8 7.8-19l-0.3-139.5c0-14.8-12-26.8-26.8-26.8zm0.3 196.2z"/><g style="opacity:.2"><path class="b" d="m247.9 215.2l-214.2 0.5c-16.4 0-29.9-13.4-29.9-29.8l-0.3-139.5c0-16.4 13.4-29.9 29.8-29.9l214.2-0.5c16.4 0 29.9 13.4 29.9 29.8l0.3 139.5c0.1 16.4-13.3 29.9-29.8 29.9z"/></g><path class="c" d="m255.8 240.1l-230 0.5c-12.1 0-22-9.8-22-21.9l-0.3-155.3c0-12.1 9.8-22 21.9-22l230-0.5c12.1 0 22 9.8 22 21.9l0.4 155.3c0 12.1-9.9 22-22 22z"/><path fill-rule="evenodd" class="b" d="m25.8 242.6c-6.4 0-12.4-2.5-16.9-7-4.6-4.5-7.1-10.5-7.1-16.9l-0.3-155.3c0-6.4 2.5-12.4 7-16.9 4.5-4.6 10.5-7.1 16.9-7.1l230-0.5q0 0 0.1 0c13.2 0 23.9 10.7 23.9 23.9l0.4 155.3c0 13.2-10.7 24-24 24l-230 0.5q0 0 0 0zm229.7-199.7q-0.1 0-0.1 0l-230 0.5c-5.3 0-10.3 2.1-14.1 5.9-3.8 3.8-5.8 8.8-5.8 14.1l0.3 155.3c0 5.3 2.1 10.3 5.9 14.1 3.8 3.7 8.8 5.8 14.1 5.8q0 0 0 0l230-0.5c11 0 20-9 20-20l-0.4-155.3c0-11-8.9-19.9-19.9-19.9z"/><path class="a" d="m257.7 3.5l-58 0.2c-10.8 0-19.5 8.8-19.5 19.6v27.7l-146.9 0.3c-16.4 0.1-29.9 13.5-29.8 30l0.3 139.4c0 16.5 13.5 29.9 29.9 29.9l214.2-0.5c16.4 0 29.9-13.5 29.8-29.9l-0.3-136.6v-2.9l-0.1-57.6c0-10.8-8.8-19.6-19.6-19.6z"/><path fill-rule="evenodd" class="b" d="m33.7 253.6c-18.1 0-32.9-14.7-32.9-32.9l-0.3-139.4c-0.1-18.1 14.7-32.9 32.8-33l143.9-0.3v-24.7c0-6 2.3-11.7 6.6-16 4.2-4.3 9.9-6.6 15.9-6.6l58-0.2q0 0 0 0c12.5 0 22.6 10.1 22.6 22.5l0.4 197.2c0.1 18.1-14.7 32.9-32.8 32.9l-214.2 0.5q0 0 0 0zm224-247.1l-58 0.2c-4.4 0-8.5 1.7-11.7 4.9-3.1 3.1-4.8 7.3-4.8 11.7v27.7c0 0.8-0.3 1.6-0.8 2.1-0.6 0.6-1.4 0.9-2.2 0.9l-146.9 0.3c-14.8 0.1-26.9 12.1-26.8 27l0.3 139.4c0 14.8 12.1 26.9 26.9 26.9q0 0 0 0l214.2-0.5c14.8 0 26.8-12.1 26.8-26.9l-0.4-197.1c0-9.2-7.4-16.6-16.6-16.6q0 0 0 0zm0-3z"/><g style="opacity:.1"><path class="c" d="m255.7 25.8l-51.9 0.1c-9.6 0-17.5 7.9-17.5 17.5l0.1 24.9-131.5 0.3c-14.7 0-26.7 12-26.7 26.8l0.3 124.8c0 14.7 12.1 26.7 26.8 26.7l191.6-0.5c14.7 0 26.7-12 26.7-26.8l-0.3-122.2v-2.6l-0.1-51.6c0-9.6-7.9-17.4-17.5-17.4z"/></g><path class="c" d="m258.7 221.4c0 5.3-4.4 9.7-9.8 9.7-5.3 0-9.7-4.4-9.7-9.7 0-5.4 4.4-9.8 9.7-9.8 5.4 0 9.8 4.4 9.8 9.8z"/><path class="c" d="m265.5 56.3c-1.1 0-2-0.9-2-2v-26.6c0-4.5-3.9-8.1-8.8-8.1h-19.4c-1.1 0-2-0.9-2-2 0-1.1 0.9-2 2-2h19.4c7.1 0 12.8 5.4 12.8 12.1v26.6c0 1.1-0.9 2-2 2z"/></svg>