<svg version="1.2" xmlns="http://www.w3.org/2000/svg" viewBox="0 0 379 488" width="379" height="488"><style>.a{fill:#3d85fd}.b{fill:#233863}.c{fill:#fff}.d{fill:#ffb44f}.e{fill:#3aaed5}</style><path class="a" d="m260.9 449.2l-214.2 0.5c-16.4 0-29.9-13.4-29.9-29.8l-0.3-139.5c0-16.4 13.4-29.9 29.8-29.9l214.2-0.5c16.4 0 29.9 13.4 29.9 29.8l0.3 139.5c0.1 16.4-13.3 29.9-29.8 29.9z"/><path fill-rule="evenodd" class="b" d="m46.7 452.7c-18.1 0-32.9-14.7-32.9-32.8l-0.3-139.5c0-18.1 14.7-32.9 32.8-32.9l214.2-0.5q0 0 0.1 0c18.1 0 32.8 14.7 32.8 32.8l0.3 139.5c0.1 8.7-3.4 17-9.6 23.2-6.2 6.3-14.4 9.7-23.2 9.7l-214.2 0.5q0 0 0 0zm213.9-199.7q-0.1 0-0.1 0l-214.2 0.5c-14.8 0-26.8 12.1-26.8 26.9l0.3 139.5c0 14.8 12.1 26.8 26.9 26.8q0 0 0 0l214.2-0.5c7.2 0 13.9-2.8 19-7.9 5.1-5.1 7.9-11.8 7.8-19l-0.3-139.5c0-14.8-12-26.8-26.8-26.8zm0.3 196.2z"/><g style="opacity:.2"><path class="b" d="m260.9 449.2l-214.2 0.5c-16.4 0-29.9-13.4-29.9-29.8l-0.3-139.5c0-16.4 13.4-29.9 29.8-29.9l214.2-0.5c16.4 0 29.9 13.4 29.9 29.8l0.3 139.5c0.1 16.4-13.3 29.9-29.8 29.9z"/></g><path class="c" d="m248.9 418.1l-94.3-90.4c-1.1-1-1.1-2.6-0.1-3.6l122.4-127.7c1-1 2.6-1 3.6-0.1l94.3 90.5c1 0.9 1.1 2.5 0.1 3.6l-122.4 127.7c-1 1-2.6 1-3.6 0z"/><path fill-rule="evenodd" class="b" d="m250.6 421.8c-1.4 0-2.8-0.5-3.8-1.5q0 0 0 0l-94.3-90.4c-1.1-1.1-1.7-2.4-1.7-3.9-0.1-1.5 0.5-2.9 1.5-4l122.4-127.7c2.2-2.2 5.7-2.2 7.9-0.1l94.3 90.4c2.2 2.1 2.3 5.6 0.2 7.8l-122.4 127.7c-1.1 1.1-2.5 1.7-3.9 1.7q-0.1 0-0.2 0zm-93.6-95.9l93.6 89.8 121.8-127.1-93.6-89.8zm94 90.1h-0.1q0 0 0 0z"/><path class="d" d="m347 289.7c-0.5 0-1-0.2-1.4-0.6l-35.5-34c-0.8-0.8-0.8-2.1-0.1-2.9 0.8-0.8 2.1-0.8 2.9 0l35.5 34c0.8 0.8 0.8 2 0 2.8-0.4 0.5-0.9 0.7-1.4 0.7z"/><path class="b" d="m329.1 313.1c-0.5 0-1-0.2-1.3-0.6l-71.1-68c-0.8-0.8-0.8-2.1 0-2.9 0.7-0.8 2-0.8 2.8 0l71 68.1c0.8 0.7 0.8 2 0.1 2.8-0.4 0.4-0.9 0.6-1.5 0.6z"/><path class="b" d="m306 337.2c-0.5 0-1-0.1-1.4-0.5l-71-68.1c-0.8-0.8-0.8-2-0.1-2.8 0.8-0.8 2.1-0.9 2.9-0.1l71 68.1c0.8 0.8 0.8 2 0 2.8-0.4 0.4-0.9 0.6-1.4 0.6z"/><path class="b" d="m284.2 360c-0.5 0-1-0.2-1.4-0.6l-71-68.1c-0.8-0.7-0.8-2-0.1-2.8 0.8-0.8 2.1-0.8 2.9-0.1l71 68.1c0.8 0.8 0.8 2 0 2.8-0.3 0.5-0.9 0.7-1.4 0.7z"/><path class="b" d="m261.1 384.1c-0.5 0-1-0.2-1.4-0.5l-71-68.1c-0.8-0.8-0.9-2.1-0.1-2.9 0.8-0.8 2-0.8 2.8 0l71 68.1c0.8 0.7 0.9 2 0.1 2.8-0.4 0.4-0.9 0.6-1.4 0.6z"/><path class="c" d="m194.6 302.9l-121 49.4c-1.3 0.5-2.8-0.1-3.3-1.4l-66.9-163.8c-0.5-1.3 0.1-2.8 1.4-3.3l120.9-49.4c1.3-0.6 2.8 0.1 3.4 1.4l66.9 163.7c0.5 1.3-0.1 2.8-1.4 3.4z"/><path fill-rule="evenodd" class="b" d="m72.7 355.5q-1.1 0-2.2-0.5c-1.4-0.6-2.4-1.6-3-3l-66.9-163.8c-0.5-1.3-0.5-2.8 0-4.2 0.6-1.4 1.7-2.4 3.1-3l120.9-49.4c2.8-1.2 6.1 0.2 7.2 3l66.9 163.8c1.2 2.8-0.2 6.1-3 7.2q0 0 0 0l-120.9 49.4q-1.1 0.5-2.1 0.5zm-66.4-169.1l66.6 162.9 120.1-49.1-66.5-162.9zm188.2 116.5zm-1.1-2.8z"/><path class="b" d="m108.6 196.5c-0.8 0-1.5-0.5-1.8-1.2-0.5-1.1 0-2.2 1-2.6l20.8-8.5c1.1-0.5 2.2 0 2.7 1.1 0.4 1-0.1 2.1-1.1 2.6l-20.8 8.5q-0.4 0.1-0.8 0.1z"/><path class="b" d="m51 256.2c-0.8 0-1.6-0.5-1.9-1.3-0.4-1 0.1-2.2 1.1-2.6l91.1-37.2c1-0.4 2.2 0.1 2.6 1.1 0.4 1-0.1 2.2-1.1 2.6l-91.1 37.2q-0.3 0.2-0.7 0.2z"/><path class="d" d="m114.5 254.8c-0.8 0-1.6-0.4-1.9-1.2-0.4-1 0.1-2.2 1.1-2.6l36.2-14.8c1-0.4 2.2 0.1 2.6 1.1 0.4 1-0.1 2.2-1.1 2.6l-36.2 14.8q-0.4 0.1-0.7 0.1z"/><path class="d" d="m59.6 277.2c-0.8 0-1.5-0.4-1.9-1.2-0.4-1 0.1-2.2 1.1-2.6l22.2-9.1c1-0.4 2.2 0.1 2.6 1.1 0.4 1.1-0.1 2.2-1.1 2.6l-22.2 9.1q-0.3 0.2-0.7 0.1z"/><path class="b" d="m66.7 301.8c-0.8 0-1.5-0.5-1.8-1.2-0.4-1.1 0.1-2.2 1.1-2.6l56.1-23c1-0.4 2.2 0.1 2.6 1.1 0.4 1.1-0.1 2.2-1.1 2.6l-56.1 23q-0.4 0.1-0.8 0.1z"/><path class="d" d="m98.4 211.7l-48.4 20.9c-2 0.9-4.4 0-5.2-2l-22.5-51.9c-0.9-2.1 0-4.4 2.1-5.3l48.3-21c2.1-0.8 4.4 0.1 5.3 2.1l22.5 51.9c0.9 2-0.1 4.4-2.1 5.3z"/><path fill-rule="evenodd" class="b" d="m48.4 235q-1.1 0-2.2-0.5c-1.5-0.5-2.6-1.7-3.3-3.2l-22.5-51.8c-0.6-1.5-0.6-3.1 0-4.6 0.6-1.5 1.7-2.7 3.2-3.3l48.3-21c3.1-1.3 6.6 0.1 7.9 3.1l22.5 51.9c0.6 1.5 0.7 3.1 0.1 4.6-0.6 1.5-1.7 2.7-3.2 3.3q0 0 0 0l-48.4 21q-1.1 0.5-2.4 0.5zm25.9-80.9q-0.4 0-0.8 0.2l-48.3 20.9c-0.5 0.3-0.9 0.6-1.1 1.1-0.2 0.5-0.2 1.1 0 1.6l22.5 51.9c0.2 0.5 0.6 0.8 1.1 1 0.5 0.2 1 0.2 1.5 0l48.4-21c0.5-0.2 0.9-0.6 1.1-1.1 0.2-0.5 0.2-1-0.1-1.5l-22.4-51.9c-0.4-0.7-1.1-1.2-1.9-1.2zm24.1 57.6z"/><path class="b" d="m46.8 184.2q-0.9 0-1.7-0.3c-1.2-0.5-2.1-1.4-2.6-2.6l-2.7-6c-0.2-0.5 0-1.1 0.6-1.3 0.5-0.3 1 0 1.3 0.5l2.6 6.1c0.3 0.6 0.8 1.1 1.5 1.4 0.7 0.3 1.4 0.3 2.1 0l0.4-0.2c1.1-0.5 1.6-1.7 1.1-2.8l-6.6-15.4c-0.5-1.1-1.8-1.6-2.9-1.1l-0.8 0.3c-1.1 0.5-1.7 1.9-1.2 3.1l0.2 0.3c0.2 0.5 0 1.1-0.5 1.3-0.5 0.3-1.1 0-1.3-0.5l-0.2-0.3c-0.9-2.2 0.1-4.8 2.2-5.7l0.8-0.4c2.1-0.9 4.6 0.1 5.5 2.2l6.7 15.4c0.9 2.1-0.1 4.5-2.2 5.4l-0.4 0.2q-0.9 0.4-1.9 0.4z"/><path class="c" d="m75.2 161.5c1.6 1.7 1.6 4.3-0.1 6-1.7 1.6-4.3 1.6-6-0.1-1.6-1.6-1.6-4.3 0.1-6 1.6-1.6 4.3-1.6 6 0.1z"/><path class="c" d="m308.9 171.6l-120.3 51c-1.3 0.6-2.8 0-3.3-1.3l-69.2-162.9c-0.5-1.3 0.1-2.8 1.4-3.3l120.3-51.1c1.3-0.5 2.8 0.1 3.3 1.4l69.1 162.8c0.6 1.3 0 2.8-1.3 3.4z"/><path fill-rule="evenodd" class="b" d="m187.6 225.8q-1 0-2.1-0.4c-1.3-0.5-2.4-1.6-3-3l-69.1-162.8c-1.2-2.8 0.1-6.1 2.9-7.3l120.3-51c1.4-0.6 2.9-0.6 4.2-0.1 1.4 0.6 2.5 1.6 3.1 3l69.1 162.8c0.6 1.4 0.6 2.9 0 4.3-0.5 1.4-1.6 2.4-2.9 3l-120.3 51.1q-1.1 0.4-2.2 0.4zm-68.5-168.1l68.8 162 119.4-50.7-68.8-162z"/><path class="b" d="m221.4 66.4c-0.7 0-1.5-0.5-1.8-1.2-0.4-1 0.1-2.2 1.1-2.7l20.6-8.7c1.1-0.5 2.2 0 2.7 1 0.4 1-0.1 2.2-1.1 2.6l-20.7 8.8q-0.4 0.2-0.8 0.2z"/><path class="b" d="m164.6 126.8c-0.7 0-1.5-0.4-1.8-1.2-0.4-1 0-2.2 1.1-2.6l90.5-38.4c1-0.5 2.2 0 2.6 1 0.5 1 0 2.2-1 2.6l-90.6 38.5q-0.4 0.1-0.8 0.1z"/><path class="d" d="m228.1 124.6c-0.8 0-1.5-0.4-1.8-1.2-0.5-1 0-2.2 1-2.6l36-15.3c1-0.4 2.2 0 2.6 1.1 0.5 1 0 2.2-1 2.6l-36 15.3q-0.4 0.1-0.8 0.1z"/><path class="d" d="m173.5 147.8c-0.7 0-1.5-0.5-1.8-1.2-0.4-1 0-2.2 1.1-2.7l22-9.3c1-0.4 2.2 0 2.6 1.1 0.4 1 0 2.1-1 2.6l-22.1 9.3q-0.4 0.2-0.8 0.2z"/><path class="b" d="m181 172.3c-0.8 0-1.5-0.5-1.8-1.3-0.5-1 0-2.2 1-2.6l55.8-23.7c1-0.4 2.2 0.1 2.6 1.1 0.5 1 0 2.2-1 2.6l-55.8 23.7q-0.4 0.2-0.8 0.2z"/><path class="e" d="m247.4 345.2l-129.2-19.6c-1.4-0.2-2.3-1.5-2.1-2.9l26.5-174.9c0.2-1.4 1.5-2.3 2.9-2.1l129.2 19.6c1.4 0.2 2.4 1.5 2.1 2.9l-26.5 174.9c-0.2 1.4-1.5 2.3-2.9 2.1z"/><path fill-rule="evenodd" class="b" d="m247.8 348.2q-0.4 0-0.8 0l-129.2-19.6c-1.5-0.2-2.8-1-3.7-2.2-0.8-1.2-1.2-2.7-1-4.2l26.6-174.8c0.2-1.5 1-2.8 2.2-3.7 1.1-0.9 2.6-1.2 4.1-1l129.2 19.6c1.4 0.2 2.7 1 3.6 2.2 0.9 1.2 1.2 2.7 1 4.1l-26.5 174.9c-0.2 1.5-1 2.8-2.2 3.7-1 0.7-2.1 1-3.3 1zm-128.7-25.5l128.3 19.5 26.4-174-128.3-19.5z"/><path class="c" d="m187 176.8q-0.1 0-0.3 0l-24.8-3.7c-1.1-0.2-1.8-1.2-1.7-2.3 0.2-1.1 1.2-1.9 2.3-1.7l24.8 3.8c1.1 0.1 1.8 1.2 1.7 2.2-0.2 1-1 1.7-2 1.7z"/><path class="b" d="m251.4 213.5q-0.2 0-0.3 0l-28.5-4.4c-1.1-0.1-1.8-1.1-1.7-2.2 0.2-1.1 1.2-1.9 2.3-1.7l28.5 4.3c1.1 0.2 1.8 1.2 1.6 2.3-0.1 1-1 1.7-1.9 1.7z"/><path class="c" d="m202.7 206.1q-0.1 0-0.3 0l-48.6-7.4c-1.1-0.2-1.8-1.2-1.7-2.3 0.2-1.1 1.2-1.8 2.3-1.7l48.6 7.4c1.1 0.2 1.9 1.2 1.7 2.3-0.1 1-1 1.7-2 1.7z"/><path class="b" d="m204.5 240.2q-0.1 0-0.3 0l-55.4-8.4c-1.1-0.2-1.9-1.2-1.7-2.3 0.2-1.1 1.2-1.9 2.3-1.7l55.4 8.4c1.1 0.2 1.8 1.2 1.7 2.3-0.2 1-1 1.7-2 1.7z"/><path class="c" d="m241.6 277.7q-0.1 0-0.3 0l-97.2-14.8c-1.1-0.2-1.9-1.2-1.7-2.3 0.2-1.1 1.2-1.8 2.3-1.7l97.2 14.8c1.1 0.2 1.9 1.2 1.7 2.3-0.1 1-1 1.7-2 1.7z"/><path class="c" d="m194 304.3q-0.1 0-0.3 0l-54.6-8.3c-1.1-0.2-1.9-1.2-1.7-2.3 0.1-1.1 1.1-1.9 2.3-1.7l54.6 8.3c1.1 0.2 1.9 1.2 1.7 2.3-0.1 1-1 1.7-2 1.7z"/><path class="c" d="m268.8 474.1l-230 0.5c-12.1 0-22-9.8-22-21.9l-0.3-155.3c0-12.1 9.8-22 21.9-22l230-0.5c12.1 0 22 9.8 22 21.9l0.4 155.3c0 12.1-9.9 22-22 22z"/><path fill-rule="evenodd" class="b" d="m38.8 476.6c-6.4 0-12.4-2.5-16.9-7-4.6-4.5-7.1-10.5-7.1-16.9l-0.3-155.3c0-6.4 2.5-12.4 7-16.9 4.5-4.6 10.5-7.1 16.9-7.1l230-0.5q0 0 0.1 0c13.2 0 23.9 10.7 23.9 23.9l0.4 155.3c0 13.2-10.7 24-24 24l-230 0.5q0 0 0 0zm229.7-199.7q-0.1 0-0.1 0l-230 0.5c-5.3 0-10.3 2.1-14.1 5.9-3.8 3.8-5.8 8.8-5.8 14.1l0.3 155.3c0 5.3 2.1 10.3 5.9 14.1 3.8 3.7 8.8 5.8 14.1 5.8q0 0 0 0l230-0.5c11 0 20-9 20-20l-0.4-155.3c0-11-8.9-19.9-19.9-19.9z"/><path class="a" d="m270.7 237.5l-58 0.2c-10.8 0-19.5 8.8-19.5 19.6v27.7l-146.9 0.3c-16.4 0.1-29.9 13.5-29.8 30l0.3 139.4c0 16.5 13.5 29.9 29.9 29.9l214.2-0.5c16.4 0 29.9-13.5 29.8-29.9l-0.3-136.6v-2.9l-0.1-57.6c0-10.8-8.8-19.6-19.6-19.6z"/><path fill-rule="evenodd" class="b" d="m46.7 487.6c-18.1 0-32.9-14.7-32.9-32.9l-0.3-139.4c-0.1-18.1 14.7-32.9 32.8-33l143.9-0.3v-24.7c0-6 2.3-11.7 6.6-16 4.2-4.3 9.9-6.6 15.9-6.6l58-0.2q0 0 0 0c12.5 0 22.6 10.1 22.6 22.5l0.4 197.2c0.1 18.1-14.7 32.9-32.8 32.9l-214.2 0.5q0 0 0 0zm224-247.1l-58 0.2c-4.4 0-8.5 1.7-11.7 4.9-3.1 3.1-4.8 7.3-4.8 11.7v27.7c0 0.8-0.3 1.6-0.8 2.1-0.6 0.6-1.4 0.9-2.2 0.9l-146.9 0.3c-14.8 0.1-26.9 12.1-26.8 27l0.3 139.4c0 14.8 12.1 26.9 26.9 26.9q0 0 0 0l214.2-0.5c14.8 0 26.8-12.1 26.8-26.9l-0.4-197.1c0-9.2-7.4-16.6-16.6-16.6q0 0 0 0zm0-3z"/><g style="opacity:.1"><path class="c" d="m268.7 259.8l-51.9 0.1c-9.6 0-17.5 7.9-17.5 17.5l0.1 24.9-131.5 0.3c-14.7 0-26.7 12-26.7 26.8l0.3 124.8c0 14.7 12.1 26.7 26.8 26.7l191.6-0.5c14.7 0 26.7-12 26.7-26.8l-0.3-122.2v-2.6l-0.1-51.6c0-9.6-7.9-17.4-17.5-17.4z"/></g><path class="c" d="m271.7 455.4c0 5.3-4.4 9.7-9.8 9.7-5.3 0-9.7-4.4-9.7-9.7 0-5.4 4.4-9.8 9.7-9.8 5.4 0 9.8 4.4 9.8 9.8z"/><path class="c" d="m278.5 290.3c-1.1 0-2-0.9-2-2v-26.6c0-4.5-3.9-8.1-8.8-8.1h-19.4c-1.1 0-2-0.9-2-2 0-1.1 0.9-2 2-2h19.4c7.1 0 12.8 5.4 12.8 12.1v26.6c0 1.1-0.9 2-2 2z"/><path class="c" d="m135.5 369.1c-1.3 0-2.6-0.5-3.6-1.5-1.9-1.9-1.9-5.1 0.1-7l23.5-23.1 23.1 23.1c2 2 2 5.1 0 7.1-1.9 1.9-5.1 1.9-7.1 0l-16.1-16.1-16.4 16.1c-1 1-2.3 1.4-3.5 1.4z"/><path class="c" d="m155.3 400.1c-2.8 0-5-2.2-5-5v-50.6c0-2.8 2.2-5 5-5 2.7 0 5 2.2 5 5v50.6c0 2.8-2.3 5-5 5z"/><path class="c" d="m192.1 424.1h-74.2c-5.9 0-10.8-4.8-10.8-10.7v-27c0-2.7 2.3-5 5-5 2.8 0 5 2.3 5 5v27c0 0.4 0.4 0.7 0.8 0.7h74.2c0.7 0 1.3-0.6 1.3-1.3v-26.4c0-2.7 2.3-5 5-5 2.8 0 5 2.3 5 5v26.4c0 6.3-5.1 11.3-11.3 11.3z"/></svg>